<?xml version="1.0" standalone="no"?>
<!DOCTYPE svg PUBLIC "-//W3C//DTD SVG 20010904//EN"
 "http://www.w3.org/TR/2001/REC-SVG-20010904/DTD/svg10.dtd">
<svg version="1.0" xmlns="http://www.w3.org/2000/svg"
 width="800.000000pt" height="800.000000pt" viewBox="0 0 800.000000 800.000000"
 preserveAspectRatio="xMidYMid meet">
<metadata>
Created by potrace 1.11, written by Peter Selinger 2001-2013
</metadata>
<g transform="translate(0.000000,800.000000) scale(0.100000,-0.100000)"
fill="#000000" stroke="none">
<path d="M3280 7934 c-10 -23 -21 -53 -25 -66 -4 -12 -15 -41 -25 -63 -9 -22
-52 -128 -94 -235 -43 -107 -89 -220 -102 -251 -13 -31 -24 -64 -24 -73 0 -9
-4 -16 -9 -16 -5 0 -13 -14 -16 -32 -4 -18 -11 -39 -16 -48 -11 -19 -129 -311
-133 -327 -1 -7 -5 -16 -9 -19 -4 -4 -7 -16 -7 -26 0 -10 -4 -18 -8 -18 -5 0
-9 -6 -9 -12 0 -10 -189 -490 -233 -593 -5 -11 -18 -42 -30 -70 -12 -27 -23
-55 -24 -62 -1 -7 -5 -16 -9 -19 -4 -4 -7 -16 -7 -26 0 -10 -4 -18 -8 -18 -5
0 -9 -6 -9 -12 0 -10 -76 -203 -174 -443 -7 -16 -13 -32 -14 -35 -1 -3 -9 -22
-18 -44 -9 -21 -17 -42 -17 -47 0 -5 -4 -17 -10 -27 -5 -9 -41 -98 -81 -197
-74 -189 -75 -190 -109 -270 -12 -27 -23 -54 -24 -60 -4 -15 -16 -46 -36 -90
-9 -22 -21 -51 -25 -65 -4 -14 -13 -38 -21 -55 -15 -34 -159 -392 -179 -445
-12 -34 -86 -218 -108 -270 -6 -14 -11 -27 -12 -30 -1 -3 -9 -22 -18 -44 -9
-21 -17 -42 -17 -45 0 -4 -9 -26 -20 -49 -11 -22 -20 -48 -20 -57 0 -8 -5 -15
-12 -15 -6 0 -9 -3 -5 -6 3 -4 0 -19 -8 -35 -8 -15 -15 -33 -15 -39 0 -7 277
-10 895 -10 492 0 895 -2 895 -5 0 -2 -9 -21 -19 -42 -23 -45 -84 -176 -86
-183 -1 -3 -18 -40 -38 -82 -20 -43 -52 -111 -71 -150 -57 -124 -92 -199 -142
-303 -26 -55 -48 -102 -49 -105 -5 -16 -29 -68 -80 -175 -56 -117 -96 -202
-156 -334 -41 -87 -92 -195 -155 -329 -30 -62 -54 -115 -54 -117 0 -3 -18 -40
-39 -84 -21 -44 -36 -82 -33 -85 3 -3 0 -6 -6 -6 -7 0 -12 -5 -12 -12 0 -6
-17 -48 -39 -92 -21 -45 -55 -117 -75 -161 -21 -44 -43 -91 -49 -105 -7 -14
-16 -28 -22 -32 -5 -4 -7 -8 -3 -8 4 0 -1 -17 -11 -37 -22 -44 -84 -176 -86
-183 -2 -6 -48 -105 -107 -230 -25 -52 -57 -120 -71 -150 -28 -61 -155 -333
-211 -451 -43 -92 -44 -101 -9 -59 14 18 42 49 62 69 63 66 111 123 111 133 0
5 5 6 10 3 5 -3 10 -2 10 2 0 5 19 30 43 55 49 54 174 192 200 222 10 12 40
44 65 72 26 28 77 84 114 125 97 108 107 119 179 200 37 41 77 86 90 100 13
15 56 61 94 104 39 42 79 87 90 99 11 13 54 60 95 106 41 46 87 97 102 114 14
17 46 52 70 77 23 25 68 75 99 110 31 35 67 76 80 90 13 14 53 58 89 98 36 40
79 88 95 106 40 43 83 91 182 202 45 50 84 89 87 85 3 -3 6 1 6 9 0 8 8 22 18
30 9 9 49 51 87 94 39 43 85 94 103 113 17 18 32 35 32 37 0 2 19 24 43 48 23
25 53 58 67 73 13 16 63 72 110 124 48 52 95 105 106 118 10 13 37 42 59 66
36 38 167 183 205 226 27 31 165 184 190 211 14 15 54 60 90 100 36 40 84 94
106 119 73 79 95 103 163 179 36 41 82 91 101 112 19 20 60 65 90 100 30 34
66 74 80 89 14 15 59 65 100 110 41 46 82 91 90 100 8 9 49 54 90 100 41 47
84 94 95 106 11 11 49 53 85 94 36 40 76 85 90 100 32 35 170 188 190 210 8
10 65 72 125 139 61 68 111 126 113 129 1 4 -430 7 -958 6 -528 0 -960 0 -960
2 0 5 38 59 240 343 244 342 257 360 278 391 9 14 19 27 22 30 3 3 21 28 40
55 19 28 38 52 42 53 4 2 8 9 8 15 0 7 11 26 25 42 13 17 85 116 160 220 74
105 141 199 149 210 20 27 187 261 206 289 23 32 128 180 137 191 4 6 21 30
38 55 16 25 32 47 35 50 4 3 26 34 51 70 24 35 49 71 56 80 10 12 141 196 193
270 53 75 133 188 143 200 7 8 39 53 71 100 33 47 63 87 68 88 4 2 8 10 8 18
0 8 5 14 11 14 5 0 8 4 4 10 -3 5 -266 9 -683 10 -372 1 -1063 2 -1535 3
l-858 3 -19 -42z"/>
</g>
</svg>
