<?xml version="1.0" standalone="no"?><!-- Generator: Gravit.io --><svg xmlns="http://www.w3.org/2000/svg" xmlns:xlink="http://www.w3.org/1999/xlink" style="isolation:isolate" viewBox="-76 0.305 185.029 99.576" width="185.029" height="99.576"><defs><clipPath id="_clipPath_wFVQfiT4AT0yHbn7O1WSZRqwwdy4w1mW"><rect x="-76" y="0.305" width="185.029" height="99.576"/></clipPath></defs><g clip-path="url(#_clipPath_wFVQfiT4AT0yHbn7O1WSZRqwwdy4w1mW)"><path d=" M -53.966 0.305 L -15.407 0.403 L -40.407 35.475 L -16.254 35.475 L -74.305 99.881 L -53.542 55.39 L -76 55.39 L -53.966 0.305 Z " fill="rgb(255,230,31)"/><path d=" M -13.782 69.949 L -41.071 88.235 L -50.447 98.649 L -60.123 98.649 L -50.636 88.112 L -45.106 69.949 L -34.897 69.949 L -37.968 79.871 L -23.13 69.949 L -13.782 69.949 L -13.782 69.949 Z  M -22.31 91.351 L -7.96 91.351 L -14.531 98.649 L -38.393 98.649 L -12.552 69.949 L 10.777 69.949 L 4.206 77.247 L -9.611 77.247 L -12.638 80.609 L -0.502 80.609 L -6.778 87.579 L -18.914 87.579 L -22.31 91.351 L -22.31 91.351 Z  M -0.69 99.305 L -0.69 99.305 Q -4.257 99.305 -6.92 98.505 L -6.92 98.505 L -6.92 98.505 Q -9.582 97.706 -10.537 96.353 L -10.537 96.353 L -1.071 89.301 L -1.071 89.301 Q -0.092 90.49 1.804 91.207 L 1.804 91.207 L 1.804 91.207 Q 3.7 91.925 6.037 91.925 L 6.037 91.925 L 6.037 91.925 Q 8.046 91.925 9.258 91.535 L 9.258 91.535 L 9.258 91.535 Q 10.469 91.146 11.171 90.367 L 11.171 90.367 L 11.171 90.367 Q 11.983 89.465 11.261 89.014 L 11.261 89.014 L 11.261 89.014 Q 10.54 88.563 8.437 88.03 L 8.437 88.03 L 8.437 88.03 Q 5.744 87.333 4.249 86.533 L 4.249 86.533 L 4.249 86.533 Q 2.755 85.734 2.758 83.909 L 2.758 83.909 L 2.758 83.909 Q 2.761 82.085 5.566 78.969 L 5.566 78.969 L 5.566 78.969 Q 8.003 76.263 11.513 74.049 L 11.513 74.049 L 11.513 74.049 Q 15.024 71.835 19.182 70.564 L 19.182 70.564 L 19.182 70.564 Q 23.34 69.293 27.645 69.293 L 27.645 69.293 L 27.645 69.293 Q 30.597 69.293 32.874 69.928 L 32.874 69.928 L 32.874 69.928 Q 35.151 70.564 36.217 71.794 L 36.217 71.794 L 26.993 78.805 L 26.993 78.805 Q 24.69 76.673 20.918 76.673 L 20.918 76.673 L 20.918 76.673 Q 17.187 76.673 15.562 78.477 L 15.562 78.477 L 15.562 78.477 Q 14.787 79.338 15.507 79.768 L 15.507 79.768 L 15.507 79.768 Q 16.226 80.199 18.325 80.691 L 18.325 80.691 L 18.325 80.691 Q 21.051 81.306 22.586 82.105 L 22.586 82.105 L 22.586 82.105 Q 24.122 82.905 24.158 84.709 L 24.158 84.709 L 24.158 84.709 Q 24.194 86.513 21.388 89.629 L 21.388 89.629 L 21.388 89.629 Q 18.952 92.335 15.46 94.528 L 15.46 94.528 L 15.46 94.528 Q 11.968 96.722 7.791 98.013 L 7.791 98.013 L 7.791 98.013 Q 3.615 99.305 -0.69 99.305 L -0.69 99.305 L -0.69 99.305 Z  M 26.247 99.305 L 26.247 99.305 Q 22.68 99.305 20.017 98.505 L 20.017 98.505 L 20.017 98.505 Q 17.355 97.706 16.4 96.353 L 16.4 96.353 L 25.866 89.301 L 25.866 89.301 Q 26.845 90.49 28.741 91.207 L 28.741 91.207 L 28.741 91.207 Q 30.637 91.925 32.974 91.925 L 32.974 91.925 L 32.974 91.925 Q 34.983 91.925 36.195 91.535 L 36.195 91.535 L 36.195 91.535 Q 37.406 91.146 38.108 90.367 L 38.108 90.367 L 38.108 90.367 Q 38.92 89.465 38.198 89.014 L 38.198 89.014 L 38.198 89.014 Q 37.477 88.563 35.374 88.03 L 35.374 88.03 L 35.374 88.03 Q 32.681 87.333 31.186 86.533 L 31.186 86.533 L 31.186 86.533 Q 29.692 85.734 29.695 83.909 L 29.695 83.909 L 29.695 83.909 Q 29.698 82.085 32.503 78.969 L 32.503 78.969 L 32.503 78.969 Q 34.94 76.263 38.45 74.049 L 38.45 74.049 L 38.45 74.049 Q 41.961 71.835 46.119 70.564 L 46.119 70.564 L 46.119 70.564 Q 50.277 69.293 54.582 69.293 L 54.582 69.293 L 54.582 69.293 Q 57.534 69.293 59.811 69.928 L 59.811 69.928 L 59.811 69.928 Q 62.088 70.564 63.154 71.794 L 63.154 71.794 L 53.93 78.805 L 53.93 78.805 Q 51.627 76.673 47.855 76.673 L 47.855 76.673 L 47.855 76.673 Q 44.124 76.673 42.499 78.477 L 42.499 78.477 L 42.499 78.477 Q 41.724 79.338 42.444 79.768 L 42.444 79.768 L 42.444 79.768 Q 43.163 80.199 45.262 80.691 L 45.262 80.691 L 45.262 80.691 Q 47.988 81.306 49.523 82.105 L 49.523 82.105 L 49.523 82.105 Q 51.059 82.905 51.095 84.709 L 51.095 84.709 L 51.095 84.709 Q 51.131 86.513 48.325 89.629 L 48.325 89.629 L 48.325 89.629 Q 45.889 92.335 42.397 94.528 L 42.397 94.528 L 42.397 94.528 Q 38.905 96.722 34.728 98.013 L 34.728 98.013 L 34.728 98.013 Q 30.552 99.305 26.247 99.305 L 26.247 99.305 L 26.247 99.305 Z  M 53.184 99.305 L 53.184 99.305 Q 49.617 99.305 46.954 98.505 L 46.954 98.505 L 46.954 98.505 Q 44.292 97.706 43.337 96.353 L 43.337 96.353 L 52.803 89.301 L 52.803 89.301 Q 53.782 90.49 55.678 91.207 L 55.678 91.207 L 55.678 91.207 Q 57.574 91.925 59.911 91.925 L 59.911 91.925 L 59.911 91.925 Q 61.92 91.925 63.132 91.535 L 63.132 91.535 L 63.132 91.535 Q 64.343 91.146 65.045 90.367 L 65.045 90.367 L 65.045 90.367 Q 65.857 89.465 65.135 89.014 L 65.135 89.014 L 65.135 89.014 Q 64.414 88.563 62.311 88.03 L 62.311 88.03 L 62.311 88.03 Q 59.618 87.333 58.123 86.533 L 58.123 86.533 L 58.123 86.533 Q 56.629 85.734 56.632 83.909 L 56.632 83.909 L 56.632 83.909 Q 56.635 82.085 59.44 78.969 L 59.44 78.969 L 59.44 78.969 Q 61.877 76.263 65.387 74.049 L 65.387 74.049 L 65.387 74.049 Q 68.898 71.835 73.056 70.564 L 73.056 70.564 L 73.056 70.564 Q 77.214 69.293 81.519 69.293 L 81.519 69.293 L 81.519 69.293 Q 84.471 69.293 86.748 69.928 L 86.748 69.928 L 86.748 69.928 Q 89.025 70.564 90.091 71.794 L 90.091 71.794 L 80.867 78.805 L 80.867 78.805 Q 78.564 76.673 74.792 76.673 L 74.792 76.673 L 74.792 76.673 Q 71.061 76.673 69.436 78.477 L 69.436 78.477 L 69.436 78.477 Q 68.661 79.338 69.381 79.768 L 69.381 79.768 L 69.381 79.768 Q 70.1 80.199 72.199 80.691 L 72.199 80.691 L 72.199 80.691 Q 74.925 81.306 76.46 82.105 L 76.46 82.105 L 76.46 82.105 Q 77.996 82.905 78.032 84.709 L 78.032 84.709 L 78.032 84.709 Q 78.068 86.513 75.262 89.629 L 75.262 89.629 L 75.262 89.629 Q 72.826 92.335 69.334 94.528 L 69.334 94.528 L 69.334 94.528 Q 65.842 96.722 61.665 98.013 L 61.665 98.013 L 61.665 98.013 Q 57.489 99.305 53.184 99.305 L 53.184 99.305 L 53.184 99.305 Z  M 7.103 36.463 L 16.779 36.463 L -9.063 65.163 L -18.739 65.163 L -9.214 54.585 L -18.152 54.585 L -27.677 65.163 L -37.353 65.163 L -11.511 36.463 L -1.835 36.463 L -10.99 46.631 L -2.052 46.631 L 7.103 36.463 L 7.103 36.463 Z  M 11.695 57.865 L 26.045 57.865 L 19.473 65.163 L -4.389 65.163 L 21.453 36.463 L 44.782 36.463 L 38.211 43.761 L 24.394 43.761 L 21.367 47.123 L 33.503 47.123 L 27.227 54.093 L 15.091 54.093 L 11.695 57.865 L 11.695 57.865 Z  M 37.456 65.819 L 37.456 65.819 Q 32.905 65.819 30.972 63.912 L 30.972 63.912 L 30.972 63.912 Q 29.04 62.006 30.052 58.582 L 30.052 58.582 L 30.052 58.582 Q 31.064 55.159 34.977 50.813 L 34.977 50.813 L 34.977 50.813 Q 38.89 46.467 44.043 43.043 L 44.043 43.043 L 44.043 43.043 Q 49.196 39.62 54.562 37.713 L 54.562 37.713 L 54.562 37.713 Q 59.928 35.807 64.479 35.807 L 64.479 35.807 L 64.479 35.807 Q 68.661 35.807 70.612 37.283 L 70.612 37.283 L 70.612 37.283 Q 72.563 38.759 72.184 41.547 L 72.184 41.547 L 61.165 47 L 61.165 47 Q 61.528 43.638 57.92 43.638 L 57.92 43.638 L 57.92 43.638 Q 54.886 43.638 51.287 45.585 L 51.287 45.585 L 51.287 45.585 Q 47.689 47.533 44.735 50.813 L 44.735 50.813 L 44.735 50.813 Q 41.782 54.093 41.873 56.04 L 41.873 56.04 L 41.873 56.04 Q 41.965 57.988 44.999 57.988 L 44.999 57.988 L 44.999 57.988 Q 48.607 57.988 54.299 54.626 L 54.299 54.626 L 55.498 60.079 L 55.498 60.079 Q 50.856 62.867 46.247 64.343 L 46.247 64.343 L 46.247 64.343 Q 41.638 65.819 37.456 65.819 L 37.456 65.819 L 37.456 65.819 Z  M 72.568 65.163 L 73.958 55.651 L 69.607 58.07 L 63.22 65.163 L 53.708 65.163 L 79.55 36.463 L 89.062 36.463 L 79.685 46.877 L 98.492 36.463 L 109.029 36.463 L 86.179 49.091 L 83.761 65.163 L 72.568 65.163 L 72.568 65.163 Z " fill-rule="evenodd" fill="rgb(255,243,149)"/></g></svg>