<?xml version="1.0" standalone="no"?><!-- Generator: Gravit.io --><svg xmlns="http://www.w3.org/2000/svg" xmlns:xlink="http://www.w3.org/1999/xlink" style="isolation:isolate" viewBox="-76 0.305 271.495 99.576" width="271.495" height="99.576"><defs><clipPath id="_clipPath_H89WT9EW87zy0JmmS6gkVX39tnuHjVya"><rect x="-76" y="0.305" width="271.495" height="99.576"/></clipPath></defs><g clip-path="url(#_clipPath_H89WT9EW87zy0JmmS6gkVX39tnuHjVya)"><path d=" M -53.966 0.305 L -15.407 0.403 L -40.407 35.475 L -16.254 35.475 L -74.305 99.881 L -53.542 55.39 L -76 55.39 L -53.966 0.305 Z " fill="rgb(255,230,31)"/><path d=" M 38.426 99.83 L 38.426 99.83 Q 33.793 99.83 31.771 97.903 L 31.771 97.903 L 31.771 97.903 Q 29.749 95.976 30.621 92.552 L 30.621 92.552 L 30.621 92.552 Q 31.493 89.129 35.219 84.824 L 35.219 84.824 L 35.219 84.824 Q 38.945 80.519 43.999 77.095 L 43.999 77.095 L 43.999 77.095 Q 49.052 73.672 54.41 71.745 L 54.41 71.745 L 54.41 71.745 Q 59.768 69.818 64.401 69.818 L 64.401 69.818 L 64.401 69.818 Q 69.034 69.818 71.056 71.745 L 71.056 71.745 L 71.056 71.745 Q 73.078 73.672 72.207 77.095 L 72.207 77.095 L 72.207 77.095 Q 71.335 80.519 67.609 84.824 L 67.609 84.824 L 67.609 84.824 Q 63.883 89.129 58.829 92.552 L 58.829 92.552 L 58.829 92.552 Q 53.775 95.976 48.417 97.903 L 48.417 97.903 L 48.417 97.903 Q 43.059 99.83 38.426 99.83 L 38.426 99.83 L 38.426 99.83 Z  M 45.204 91.999 L 45.204 91.999 Q 47.008 91.999 49.226 91.117 L 49.226 91.117 L 49.226 91.117 Q 51.445 90.236 53.707 88.616 L 53.707 88.616 L 53.707 88.616 Q 55.97 86.997 57.851 84.824 L 57.851 84.824 L 57.851 84.824 Q 59.731 82.651 60.272 81.031 L 60.272 81.031 L 60.272 81.031 Q 60.813 79.412 60.12 78.53 L 60.12 78.53 L 60.12 78.53 Q 59.427 77.649 57.623 77.649 L 57.623 77.649 L 57.623 77.649 Q 55.819 77.649 53.601 78.53 L 53.601 78.53 L 53.601 78.53 Q 51.383 79.412 49.12 81.031 L 49.12 81.031 L 49.12 81.031 Q 46.857 82.651 44.977 84.824 L 44.977 84.824 L 44.977 84.824 Q 43.096 86.997 42.555 88.616 L 42.555 88.616 L 42.555 88.616 Q 42.015 90.236 42.707 91.117 L 42.707 91.117 L 42.707 91.117 Q 43.4 91.999 45.204 91.999 L 45.204 91.999 L 45.204 91.999 Z  M 118.069 70.474 L 127.253 70.474 L 93.23 99.174 L 82.857 99.174 L 91.495 83.84 L 73.345 99.174 L 62.972 99.174 L 78.627 70.474 L 88.59 70.474 L 79.469 86.792 L 98.881 70.474 L 107.778 70.474 L 98.48 86.997 L 118.069 70.474 L 118.069 70.474 Z  M 35.682 70.474 L 45.112 70.474 L 20.273 99.174 L 12.319 99.174 L 12.697 86.136 L 1.413 99.174 L -8.017 99.174 L 16.822 70.474 L 24.776 70.474 L 24.398 83.512 L 35.682 70.474 L 35.682 70.474 Z  M -61.604 99.174 L -36.765 70.474 L -27.089 70.474 L -51.928 99.174 L -61.604 99.174 L -61.604 99.174 Z  M -37.121 99.83 L -37.121 99.83 Q -40.688 99.83 -43.378 99.03 L -43.378 99.03 L -43.378 99.03 Q -46.069 98.231 -47.071 96.878 L -47.071 96.878 L -37.852 89.826 L -37.852 89.826 Q -36.831 91.015 -34.91 91.732 L -34.91 91.732 L -34.91 91.732 Q -32.989 92.45 -30.652 92.45 L -30.652 92.45 L -30.652 92.45 Q -28.643 92.45 -27.444 92.06 L -27.444 92.06 L -27.444 92.06 Q -26.246 91.671 -25.572 90.892 L -25.572 90.892 L -25.572 90.892 Q -24.791 89.99 -25.529 89.539 L -25.529 89.539 L -25.529 89.539 Q -26.266 89.088 -28.387 88.555 L -28.387 88.555 L -28.387 88.555 Q -31.105 87.858 -32.627 87.058 L -32.627 87.058 L -32.627 87.058 Q -34.149 86.259 -34.21 84.434 L -34.21 84.434 L -34.21 84.434 Q -34.271 82.61 -31.574 79.494 L -31.574 79.494 L -31.574 79.494 Q -29.232 76.788 -25.799 74.574 L -25.799 74.574 L -25.799 74.574 Q -22.366 72.36 -18.252 71.089 L -18.252 71.089 L -18.252 71.089 Q -14.139 69.818 -9.834 69.818 L -9.834 69.818 L -9.834 69.818 Q -6.882 69.818 -4.582 70.453 L -4.582 70.453 L -4.582 70.453 Q -2.283 71.089 -1.175 72.319 L -1.175 72.319 L -10.153 79.33 L -10.153 79.33 Q -12.531 77.198 -16.303 77.198 L -16.303 77.198 L -16.303 77.198 Q -20.034 77.198 -21.596 79.002 L -21.596 79.002 L -21.596 79.002 Q -22.341 79.863 -21.606 80.293 L -21.606 80.293 L -21.606 80.293 Q -20.872 80.724 -18.756 81.216 L -18.756 81.216 L -18.756 81.216 Q -16.008 81.831 -14.445 82.63 L -14.445 82.63 L -14.445 82.63 Q -12.882 83.43 -12.783 85.234 L -12.783 85.234 L -12.783 85.234 Q -12.684 87.038 -15.38 90.154 L -15.38 90.154 L -15.38 90.154 Q -17.722 92.86 -21.138 95.053 L -21.138 95.053 L -21.138 95.053 Q -24.553 97.247 -28.685 98.538 L -28.685 98.538 L -28.685 98.538 Q -32.816 99.83 -37.121 99.83 L -37.121 99.83 L -37.121 99.83 Z  M 73.28 65.688 L 91.626 44.491 L 83.221 44.491 L 89.715 36.988 L 116.201 36.988 L 109.707 44.491 L 101.302 44.491 L 82.956 65.688 L 73.28 65.688 L 73.28 65.688 Z  M 93.862 65.688 L 118.702 36.988 L 128.378 36.988 L 103.538 65.688 L 93.862 65.688 L 93.862 65.688 Z  M 142.652 65.688 L 133.837 65.688 L 145.075 52.609 L 129.759 63.105 L 125.495 63.105 L 127.957 53.06 L 117.027 65.688 L 108.212 65.688 L 133.052 36.988 L 141.006 36.988 L 137.118 52.281 L 159.456 36.988 L 167.41 36.988 L 142.652 65.688 L 142.652 65.688 Z  M 163.155 58.39 L 177.505 58.39 L 171.188 65.688 L 147.326 65.688 L 172.166 36.988 L 195.495 36.988 L 189.179 44.286 L 175.362 44.286 L 172.452 47.648 L 184.588 47.648 L 178.555 54.618 L 166.419 54.618 L 163.155 58.39 L 163.155 58.39 Z  M -26.391 65.688 L -8.045 44.491 L -16.45 44.491 L -9.956 36.988 L 16.53 36.988 L 10.036 44.491 L 1.631 44.491 L -16.715 65.688 L -26.391 65.688 L -26.391 65.688 Z  M 37.645 36.988 L 47.321 36.988 L 22.481 65.688 L 12.805 65.688 L 21.961 55.11 L 13.023 55.11 L 3.867 65.688 L -5.809 65.688 L 19.031 36.988 L 28.707 36.988 L 19.907 47.156 L 28.845 47.156 L 37.645 36.988 L 37.645 36.988 Z  M 42.984 58.39 L 57.334 58.39 L 51.017 65.688 L 27.155 65.688 L 51.995 36.988 L 75.324 36.988 L 69.008 44.286 L 55.191 44.286 L 52.281 47.648 L 64.417 47.648 L 58.384 54.618 L 46.248 54.618 L 42.984 58.39 L 42.984 58.39 Z " fill-rule="evenodd" fill="rgb(255,243,149)"/></g></svg>